<mxfile host="app.diagrams.net" modified="2023-05-09T05:38:22.136Z" agent="Mozilla/5.0 (Windows NT 10.0; Win64; x64) AppleWebKit/537.36 (KHTML, like Gecko) Chrome/112.0.0.0 Safari/537.36" etag="fkfS9IMrIWL98E9IHgr2" version="21.2.9" type="device">
  <diagram name="Page-1" id="7e0a89b8-554c-2b80-1dc8-d5c74ca68de4">
    <mxGraphModel dx="2183" dy="1485" grid="1" gridSize="10" guides="1" tooltips="1" connect="1" arrows="1" fold="1" page="1" pageScale="1" pageWidth="1100" pageHeight="850" background="none" math="0" shadow="0">
      <root>
        <mxCell id="0" />
        <mxCell id="1" parent="0" />
        <mxCell id="cQRuIxADYb-FsadwnUC8-180" value="" style="rounded=0;whiteSpace=wrap;html=1;" vertex="1" parent="1">
          <mxGeometry x="-105" y="-6.88" width="900" height="546.88" as="geometry" />
        </mxCell>
        <mxCell id="cQRuIxADYb-FsadwnUC8-157" value="" style="rounded=0;whiteSpace=wrap;html=1;" vertex="1" parent="1">
          <mxGeometry x="360" y="16.25" width="40" height="20" as="geometry" />
        </mxCell>
        <mxCell id="cQRuIxADYb-FsadwnUC8-141" value="" style="rounded=0;whiteSpace=wrap;html=1;" vertex="1" parent="1">
          <mxGeometry x="95" y="217.5" width="20" height="293.25" as="geometry" />
        </mxCell>
        <mxCell id="cQRuIxADYb-FsadwnUC8-79" value="" style="rounded=1;whiteSpace=wrap;html=1;direction=south;" vertex="1" parent="1">
          <mxGeometry x="479.25" y="355" width="15" height="53" as="geometry" />
        </mxCell>
        <mxCell id="cQRuIxADYb-FsadwnUC8-64" value="" style="rounded=0;whiteSpace=wrap;html=1;" vertex="1" parent="1">
          <mxGeometry x="667.5" y="27.5" width="20" height="140" as="geometry" />
        </mxCell>
        <mxCell id="cQRuIxADYb-FsadwnUC8-49" value="" style="rounded=0;whiteSpace=wrap;html=1;" vertex="1" parent="1">
          <mxGeometry x="480.5" y="182" width="20" height="60" as="geometry" />
        </mxCell>
        <mxCell id="cQRuIxADYb-FsadwnUC8-34" value="" style="verticalLabelPosition=bottom;shadow=0;dashed=0;align=center;html=1;verticalAlign=top;strokeWidth=1;shape=ellipse;perimeter=ellipsePerimeter;fillColor=#FFF70D;strokeColor=#d6b656;" vertex="1" parent="1">
          <mxGeometry x="630" y="355" width="30" height="30" as="geometry" />
        </mxCell>
        <mxCell id="cQRuIxADYb-FsadwnUC8-35" value="" style="verticalLabelPosition=bottom;shadow=0;dashed=0;align=center;html=1;verticalAlign=top;strokeWidth=1;shape=ellipse;perimeter=ellipsePerimeter;fillColor=#1A12FF;" vertex="1" parent="1">
          <mxGeometry x="630" y="395" width="30" height="30" as="geometry" />
        </mxCell>
        <mxCell id="cQRuIxADYb-FsadwnUC8-43" value="" style="pointerEvents=1;verticalLabelPosition=bottom;shadow=0;dashed=0;align=center;html=1;verticalAlign=top;shape=mxgraph.electrical.resistors.resistor_1;" vertex="1" parent="1">
          <mxGeometry x="667.5" y="365" width="50" height="10" as="geometry" />
        </mxCell>
        <mxCell id="cQRuIxADYb-FsadwnUC8-44" value="" style="pointerEvents=1;verticalLabelPosition=bottom;shadow=0;dashed=0;align=center;html=1;verticalAlign=top;shape=mxgraph.electrical.resistors.resistor_1;" vertex="1" parent="1">
          <mxGeometry x="670" y="405" width="50" height="10" as="geometry" />
        </mxCell>
        <mxCell id="cQRuIxADYb-FsadwnUC8-45" value="IC" style="shadow=0;dashed=0;align=center;html=1;strokeWidth=1;shape=mxgraph.electrical.logic_gates.dual_inline_ic;labelNames=a,b,c,d,e,f,g,h,i,j,k,l,m,n,o,p,q,r,s,t;whiteSpace=wrap;" vertex="1" parent="1">
          <mxGeometry x="510" y="180" width="100" height="289" as="geometry" />
        </mxCell>
        <mxCell id="cQRuIxADYb-FsadwnUC8-46" value="" style="verticalLabelPosition=bottom;shadow=0;dashed=0;align=center;html=1;verticalAlign=top;strokeWidth=1;shape=ellipse;perimeter=ellipsePerimeter;" vertex="1" parent="1">
          <mxGeometry x="483" y="184" width="15" height="15" as="geometry" />
        </mxCell>
        <mxCell id="cQRuIxADYb-FsadwnUC8-47" value="" style="verticalLabelPosition=bottom;shadow=0;dashed=0;align=center;html=1;verticalAlign=top;strokeWidth=1;shape=ellipse;perimeter=ellipsePerimeter;" vertex="1" parent="1">
          <mxGeometry x="483" y="205" width="15" height="15" as="geometry" />
        </mxCell>
        <mxCell id="cQRuIxADYb-FsadwnUC8-48" value="" style="verticalLabelPosition=bottom;shadow=0;dashed=0;align=center;html=1;verticalAlign=top;strokeWidth=1;shape=ellipse;perimeter=ellipsePerimeter;" vertex="1" parent="1">
          <mxGeometry x="483" y="225" width="15" height="15" as="geometry" />
        </mxCell>
        <mxCell id="cQRuIxADYb-FsadwnUC8-50" value="IC" style="shadow=0;dashed=0;align=center;html=1;strokeWidth=1;shape=mxgraph.electrical.logic_gates.dual_inline_ic;labelNames=a,b,c,d,e,f,g,h,i,j,k,l,m,n,o,p,q,r,s,t;whiteSpace=wrap;" vertex="1" parent="1">
          <mxGeometry x="250" y="62.5" width="80" height="160" as="geometry" />
        </mxCell>
        <mxCell id="cQRuIxADYb-FsadwnUC8-52" value="" style="verticalLabelPosition=bottom;shadow=0;dashed=0;align=center;html=1;verticalAlign=top;strokeWidth=1;shape=ellipse;perimeter=ellipsePerimeter;" vertex="1" parent="1">
          <mxGeometry x="670" y="30" width="15" height="15" as="geometry" />
        </mxCell>
        <mxCell id="cQRuIxADYb-FsadwnUC8-53" value="" style="verticalLabelPosition=bottom;shadow=0;dashed=0;align=center;html=1;verticalAlign=top;strokeWidth=1;shape=ellipse;perimeter=ellipsePerimeter;" vertex="1" parent="1">
          <mxGeometry x="670" y="50" width="15" height="15" as="geometry" />
        </mxCell>
        <mxCell id="cQRuIxADYb-FsadwnUC8-54" value="" style="verticalLabelPosition=bottom;shadow=0;dashed=0;align=center;html=1;verticalAlign=top;strokeWidth=1;shape=ellipse;perimeter=ellipsePerimeter;" vertex="1" parent="1">
          <mxGeometry x="670" y="70" width="15" height="15" as="geometry" />
        </mxCell>
        <mxCell id="cQRuIxADYb-FsadwnUC8-55" value="" style="verticalLabelPosition=bottom;shadow=0;dashed=0;align=center;html=1;verticalAlign=top;strokeWidth=1;shape=ellipse;perimeter=ellipsePerimeter;" vertex="1" parent="1">
          <mxGeometry x="670" y="90" width="15" height="15" as="geometry" />
        </mxCell>
        <mxCell id="cQRuIxADYb-FsadwnUC8-56" value="" style="verticalLabelPosition=bottom;shadow=0;dashed=0;align=center;html=1;verticalAlign=top;strokeWidth=1;shape=ellipse;perimeter=ellipsePerimeter;" vertex="1" parent="1">
          <mxGeometry x="670" y="110" width="15" height="15" as="geometry" />
        </mxCell>
        <mxCell id="cQRuIxADYb-FsadwnUC8-62" value="" style="verticalLabelPosition=bottom;shadow=0;dashed=0;align=center;html=1;verticalAlign=top;strokeWidth=1;shape=ellipse;perimeter=ellipsePerimeter;" vertex="1" parent="1">
          <mxGeometry x="670" y="130" width="15" height="15" as="geometry" />
        </mxCell>
        <mxCell id="cQRuIxADYb-FsadwnUC8-63" value="" style="verticalLabelPosition=bottom;shadow=0;dashed=0;align=center;html=1;verticalAlign=top;strokeWidth=1;shape=ellipse;perimeter=ellipsePerimeter;" vertex="1" parent="1">
          <mxGeometry x="670" y="150" width="15" height="15" as="geometry" />
        </mxCell>
        <mxCell id="cQRuIxADYb-FsadwnUC8-65" value="" style="rounded=0;whiteSpace=wrap;html=1;" vertex="1" parent="1">
          <mxGeometry x="667.5" y="180" width="20" height="140" as="geometry" />
        </mxCell>
        <mxCell id="cQRuIxADYb-FsadwnUC8-66" value="" style="verticalLabelPosition=bottom;shadow=0;dashed=0;align=center;html=1;verticalAlign=top;strokeWidth=1;shape=ellipse;perimeter=ellipsePerimeter;" vertex="1" parent="1">
          <mxGeometry x="670" y="182.5" width="15" height="15" as="geometry" />
        </mxCell>
        <mxCell id="cQRuIxADYb-FsadwnUC8-67" value="" style="verticalLabelPosition=bottom;shadow=0;dashed=0;align=center;html=1;verticalAlign=top;strokeWidth=1;shape=ellipse;perimeter=ellipsePerimeter;" vertex="1" parent="1">
          <mxGeometry x="670" y="202.5" width="15" height="15" as="geometry" />
        </mxCell>
        <mxCell id="cQRuIxADYb-FsadwnUC8-68" value="" style="verticalLabelPosition=bottom;shadow=0;dashed=0;align=center;html=1;verticalAlign=top;strokeWidth=1;shape=ellipse;perimeter=ellipsePerimeter;" vertex="1" parent="1">
          <mxGeometry x="670" y="222.5" width="15" height="15" as="geometry" />
        </mxCell>
        <mxCell id="cQRuIxADYb-FsadwnUC8-69" value="" style="verticalLabelPosition=bottom;shadow=0;dashed=0;align=center;html=1;verticalAlign=top;strokeWidth=1;shape=ellipse;perimeter=ellipsePerimeter;" vertex="1" parent="1">
          <mxGeometry x="670" y="242.5" width="15" height="15" as="geometry" />
        </mxCell>
        <mxCell id="cQRuIxADYb-FsadwnUC8-70" value="" style="verticalLabelPosition=bottom;shadow=0;dashed=0;align=center;html=1;verticalAlign=top;strokeWidth=1;shape=ellipse;perimeter=ellipsePerimeter;" vertex="1" parent="1">
          <mxGeometry x="670" y="262.5" width="15" height="15" as="geometry" />
        </mxCell>
        <mxCell id="cQRuIxADYb-FsadwnUC8-71" value="" style="verticalLabelPosition=bottom;shadow=0;dashed=0;align=center;html=1;verticalAlign=top;strokeWidth=1;shape=ellipse;perimeter=ellipsePerimeter;" vertex="1" parent="1">
          <mxGeometry x="670" y="282.5" width="15" height="15" as="geometry" />
        </mxCell>
        <mxCell id="cQRuIxADYb-FsadwnUC8-72" value="" style="verticalLabelPosition=bottom;shadow=0;dashed=0;align=center;html=1;verticalAlign=top;strokeWidth=1;shape=ellipse;perimeter=ellipsePerimeter;" vertex="1" parent="1">
          <mxGeometry x="670" y="302.5" width="15" height="15" as="geometry" />
        </mxCell>
        <mxCell id="cQRuIxADYb-FsadwnUC8-73" value="IC" style="shadow=0;dashed=0;align=center;html=1;strokeWidth=1;shape=mxgraph.electrical.logic_gates.dual_inline_ic;labelNames=a,b,c,d,e,f,g,h,i,j,k,l,m,n,o,p,q,r,s,t;whiteSpace=wrap;" vertex="1" parent="1">
          <mxGeometry x="250" y="262.5" width="80" height="160" as="geometry" />
        </mxCell>
        <mxCell id="cQRuIxADYb-FsadwnUC8-74" value="" style="ellipse;shape=doubleEllipse;whiteSpace=wrap;html=1;aspect=fixed;" vertex="1" parent="1">
          <mxGeometry x="255" y="440" width="70" height="70" as="geometry" />
        </mxCell>
        <mxCell id="cQRuIxADYb-FsadwnUC8-75" value="" style="ellipse;shape=doubleEllipse;whiteSpace=wrap;html=1;aspect=fixed;" vertex="1" parent="1">
          <mxGeometry x="280" y="465" width="20" height="20" as="geometry" />
        </mxCell>
        <mxCell id="cQRuIxADYb-FsadwnUC8-77" value="" style="pointerEvents=1;verticalLabelPosition=bottom;shadow=0;dashed=0;align=center;html=1;verticalAlign=top;shape=mxgraph.electrical.plc_ladder.contact;direction=south;" vertex="1" parent="1">
          <mxGeometry x="479.25" y="355" width="15" height="53" as="geometry" />
        </mxCell>
        <mxCell id="cQRuIxADYb-FsadwnUC8-78" value="" style="rounded=0;whiteSpace=wrap;html=1;direction=south;" vertex="1" parent="1">
          <mxGeometry x="481.75" y="374" width="10" height="15" as="geometry" />
        </mxCell>
        <mxCell id="cQRuIxADYb-FsadwnUC8-81" value="" style="ellipse;whiteSpace=wrap;html=1;fillColor=#ffe6cc;strokeColor=#d79b00;" vertex="1" parent="1">
          <mxGeometry x="443.75" y="366.5" width="25" height="10" as="geometry" />
        </mxCell>
        <mxCell id="cQRuIxADYb-FsadwnUC8-82" value="" style="ellipse;whiteSpace=wrap;html=1;fillColor=#ffe6cc;strokeColor=#d79b00;" vertex="1" parent="1">
          <mxGeometry x="443.75" y="386.5" width="25" height="10" as="geometry" />
        </mxCell>
        <mxCell id="cQRuIxADYb-FsadwnUC8-83" value="" style="whiteSpace=wrap;html=1;aspect=fixed;" vertex="1" parent="1">
          <mxGeometry x="394.25" y="81.25" width="40.5" height="40.5" as="geometry" />
        </mxCell>
        <mxCell id="cQRuIxADYb-FsadwnUC8-87" value="" style="ellipse;whiteSpace=wrap;html=1;aspect=fixed;" vertex="1" parent="1">
          <mxGeometry x="404.5" y="91.5" width="20" height="20" as="geometry" />
        </mxCell>
        <mxCell id="cQRuIxADYb-FsadwnUC8-88" value="" style="shape=waypoint;sketch=0;fillStyle=solid;size=6;pointerEvents=1;points=[];fillColor=none;resizable=0;rotatable=0;perimeter=centerPerimeter;snapToPoint=1;" vertex="1" parent="1">
          <mxGeometry x="390.25" y="77.25" width="20" height="20" as="geometry" />
        </mxCell>
        <mxCell id="cQRuIxADYb-FsadwnUC8-89" value="" style="shape=waypoint;sketch=0;fillStyle=solid;size=6;pointerEvents=1;points=[];fillColor=none;resizable=0;rotatable=0;perimeter=centerPerimeter;snapToPoint=1;" vertex="1" parent="1">
          <mxGeometry x="390.25" y="106" width="20" height="20" as="geometry" />
        </mxCell>
        <mxCell id="cQRuIxADYb-FsadwnUC8-90" value="" style="shape=waypoint;sketch=0;fillStyle=solid;size=6;pointerEvents=1;points=[];fillColor=none;resizable=0;rotatable=0;perimeter=centerPerimeter;snapToPoint=1;" vertex="1" parent="1">
          <mxGeometry x="418.75" y="106" width="20" height="20" as="geometry" />
        </mxCell>
        <mxCell id="cQRuIxADYb-FsadwnUC8-91" value="" style="shape=waypoint;sketch=0;fillStyle=solid;size=6;pointerEvents=1;points=[];fillColor=none;resizable=0;rotatable=0;perimeter=centerPerimeter;snapToPoint=1;" vertex="1" parent="1">
          <mxGeometry x="418.75" y="77.25" width="20" height="20" as="geometry" />
        </mxCell>
        <mxCell id="cQRuIxADYb-FsadwnUC8-92" value="" style="whiteSpace=wrap;html=1;aspect=fixed;" vertex="1" parent="1">
          <mxGeometry x="487" y="81.25" width="40.5" height="40.5" as="geometry" />
        </mxCell>
        <mxCell id="cQRuIxADYb-FsadwnUC8-93" value="" style="ellipse;whiteSpace=wrap;html=1;aspect=fixed;" vertex="1" parent="1">
          <mxGeometry x="497.25" y="91.5" width="20" height="20" as="geometry" />
        </mxCell>
        <mxCell id="cQRuIxADYb-FsadwnUC8-94" value="" style="shape=waypoint;sketch=0;fillStyle=solid;size=6;pointerEvents=1;points=[];fillColor=none;resizable=0;rotatable=0;perimeter=centerPerimeter;snapToPoint=1;" vertex="1" parent="1">
          <mxGeometry x="483" y="77.25" width="20" height="20" as="geometry" />
        </mxCell>
        <mxCell id="cQRuIxADYb-FsadwnUC8-95" value="" style="shape=waypoint;sketch=0;fillStyle=solid;size=6;pointerEvents=1;points=[];fillColor=none;resizable=0;rotatable=0;perimeter=centerPerimeter;snapToPoint=1;" vertex="1" parent="1">
          <mxGeometry x="483" y="106" width="20" height="20" as="geometry" />
        </mxCell>
        <mxCell id="cQRuIxADYb-FsadwnUC8-96" value="" style="shape=waypoint;sketch=0;fillStyle=solid;size=6;pointerEvents=1;points=[];fillColor=none;resizable=0;rotatable=0;perimeter=centerPerimeter;snapToPoint=1;" vertex="1" parent="1">
          <mxGeometry x="511.5" y="106" width="20" height="20" as="geometry" />
        </mxCell>
        <mxCell id="cQRuIxADYb-FsadwnUC8-97" value="" style="shape=waypoint;sketch=0;fillStyle=solid;size=6;pointerEvents=1;points=[];fillColor=none;resizable=0;rotatable=0;perimeter=centerPerimeter;snapToPoint=1;" vertex="1" parent="1">
          <mxGeometry x="511.5" y="77.25" width="20" height="20" as="geometry" />
        </mxCell>
        <mxCell id="cQRuIxADYb-FsadwnUC8-98" value="" style="whiteSpace=wrap;html=1;aspect=fixed;" vertex="1" parent="1">
          <mxGeometry x="570" y="81.25" width="40.5" height="40.5" as="geometry" />
        </mxCell>
        <mxCell id="cQRuIxADYb-FsadwnUC8-99" value="" style="ellipse;whiteSpace=wrap;html=1;aspect=fixed;" vertex="1" parent="1">
          <mxGeometry x="580.25" y="91.5" width="20" height="20" as="geometry" />
        </mxCell>
        <mxCell id="cQRuIxADYb-FsadwnUC8-100" value="" style="shape=waypoint;sketch=0;fillStyle=solid;size=6;pointerEvents=1;points=[];fillColor=none;resizable=0;rotatable=0;perimeter=centerPerimeter;snapToPoint=1;" vertex="1" parent="1">
          <mxGeometry x="566" y="77.25" width="20" height="20" as="geometry" />
        </mxCell>
        <mxCell id="cQRuIxADYb-FsadwnUC8-101" value="" style="shape=waypoint;sketch=0;fillStyle=solid;size=6;pointerEvents=1;points=[];fillColor=none;resizable=0;rotatable=0;perimeter=centerPerimeter;snapToPoint=1;" vertex="1" parent="1">
          <mxGeometry x="566" y="106" width="20" height="20" as="geometry" />
        </mxCell>
        <mxCell id="cQRuIxADYb-FsadwnUC8-102" value="" style="shape=waypoint;sketch=0;fillStyle=solid;size=6;pointerEvents=1;points=[];fillColor=none;resizable=0;rotatable=0;perimeter=centerPerimeter;snapToPoint=1;" vertex="1" parent="1">
          <mxGeometry x="594.5" y="106" width="20" height="20" as="geometry" />
        </mxCell>
        <mxCell id="cQRuIxADYb-FsadwnUC8-103" value="" style="shape=waypoint;sketch=0;fillStyle=solid;size=6;pointerEvents=1;points=[];fillColor=none;resizable=0;rotatable=0;perimeter=centerPerimeter;snapToPoint=1;" vertex="1" parent="1">
          <mxGeometry x="594.5" y="77.25" width="20" height="20" as="geometry" />
        </mxCell>
        <mxCell id="cQRuIxADYb-FsadwnUC8-104" value="" style="verticalLabelPosition=bottom;shadow=0;dashed=0;align=center;html=1;verticalAlign=top;strokeWidth=1;shape=ellipse;perimeter=ellipsePerimeter;fillColor=#33FF33;strokeColor=#d6b656;direction=west;" vertex="1" parent="1">
          <mxGeometry x="135" y="33.75" width="30" height="30" as="geometry" />
        </mxCell>
        <mxCell id="cQRuIxADYb-FsadwnUC8-105" value="" style="verticalLabelPosition=bottom;shadow=0;dashed=0;align=center;html=1;verticalAlign=top;strokeWidth=1;shape=ellipse;perimeter=ellipsePerimeter;fillColor=#FF1C1C;direction=west;" vertex="1" parent="1">
          <mxGeometry x="135" y="73.75" width="30" height="30" as="geometry" />
        </mxCell>
        <mxCell id="cQRuIxADYb-FsadwnUC8-106" value="" style="pointerEvents=1;verticalLabelPosition=bottom;shadow=0;dashed=0;align=center;html=1;verticalAlign=top;shape=mxgraph.electrical.resistors.resistor_1;direction=west;" vertex="1" parent="1">
          <mxGeometry x="65" y="43.75" width="50" height="10" as="geometry" />
        </mxCell>
        <mxCell id="cQRuIxADYb-FsadwnUC8-107" value="" style="pointerEvents=1;verticalLabelPosition=bottom;shadow=0;dashed=0;align=center;html=1;verticalAlign=top;shape=mxgraph.electrical.resistors.resistor_1;direction=west;" vertex="1" parent="1">
          <mxGeometry x="65" y="83.75" width="50" height="10" as="geometry" />
        </mxCell>
        <mxCell id="cQRuIxADYb-FsadwnUC8-108" value="" style="verticalLabelPosition=bottom;shadow=0;dashed=0;align=center;html=1;verticalAlign=top;strokeWidth=1;shape=ellipse;perimeter=ellipsePerimeter;fillColor=#FFF70D;strokeColor=#d6b656;direction=west;" vertex="1" parent="1">
          <mxGeometry x="135" y="121.25" width="30" height="30" as="geometry" />
        </mxCell>
        <mxCell id="cQRuIxADYb-FsadwnUC8-109" value="" style="verticalLabelPosition=bottom;shadow=0;dashed=0;align=center;html=1;verticalAlign=top;strokeWidth=1;shape=ellipse;perimeter=ellipsePerimeter;fillColor=#FF1C1C;direction=west;" vertex="1" parent="1">
          <mxGeometry x="135" y="161.25" width="30" height="30" as="geometry" />
        </mxCell>
        <mxCell id="cQRuIxADYb-FsadwnUC8-110" value="" style="pointerEvents=1;verticalLabelPosition=bottom;shadow=0;dashed=0;align=center;html=1;verticalAlign=top;shape=mxgraph.electrical.resistors.resistor_1;direction=west;" vertex="1" parent="1">
          <mxGeometry x="65" y="131.25" width="50" height="10" as="geometry" />
        </mxCell>
        <mxCell id="cQRuIxADYb-FsadwnUC8-111" value="" style="pointerEvents=1;verticalLabelPosition=bottom;shadow=0;dashed=0;align=center;html=1;verticalAlign=top;shape=mxgraph.electrical.resistors.resistor_1;direction=west;" vertex="1" parent="1">
          <mxGeometry x="65" y="171.25" width="50" height="10" as="geometry" />
        </mxCell>
        <mxCell id="cQRuIxADYb-FsadwnUC8-112" value="" style="verticalLabelPosition=bottom;shadow=0;dashed=0;align=center;html=1;verticalAlign=top;strokeWidth=1;shape=ellipse;perimeter=ellipsePerimeter;" vertex="1" parent="1">
          <mxGeometry x="97" y="270.75" width="15" height="15" as="geometry" />
        </mxCell>
        <mxCell id="cQRuIxADYb-FsadwnUC8-113" value="" style="verticalLabelPosition=bottom;shadow=0;dashed=0;align=center;html=1;verticalAlign=top;strokeWidth=1;shape=ellipse;perimeter=ellipsePerimeter;" vertex="1" parent="1">
          <mxGeometry x="97" y="285.75" width="15" height="15" as="geometry" />
        </mxCell>
        <mxCell id="cQRuIxADYb-FsadwnUC8-114" value="" style="verticalLabelPosition=bottom;shadow=0;dashed=0;align=center;html=1;verticalAlign=top;strokeWidth=1;shape=ellipse;perimeter=ellipsePerimeter;" vertex="1" parent="1">
          <mxGeometry x="97" y="300.75" width="15" height="15" as="geometry" />
        </mxCell>
        <mxCell id="cQRuIxADYb-FsadwnUC8-115" value="" style="verticalLabelPosition=bottom;shadow=0;dashed=0;align=center;html=1;verticalAlign=top;strokeWidth=1;shape=ellipse;perimeter=ellipsePerimeter;" vertex="1" parent="1">
          <mxGeometry x="97" y="315.75" width="15" height="15" as="geometry" />
        </mxCell>
        <mxCell id="cQRuIxADYb-FsadwnUC8-129" value="" style="verticalLabelPosition=bottom;shadow=0;dashed=0;align=center;html=1;verticalAlign=top;strokeWidth=1;shape=ellipse;perimeter=ellipsePerimeter;" vertex="1" parent="1">
          <mxGeometry x="97" y="330.75" width="15" height="15" as="geometry" />
        </mxCell>
        <mxCell id="cQRuIxADYb-FsadwnUC8-130" value="" style="verticalLabelPosition=bottom;shadow=0;dashed=0;align=center;html=1;verticalAlign=top;strokeWidth=1;shape=ellipse;perimeter=ellipsePerimeter;" vertex="1" parent="1">
          <mxGeometry x="97" y="345.75" width="15" height="15" as="geometry" />
        </mxCell>
        <mxCell id="cQRuIxADYb-FsadwnUC8-131" value="" style="verticalLabelPosition=bottom;shadow=0;dashed=0;align=center;html=1;verticalAlign=top;strokeWidth=1;shape=ellipse;perimeter=ellipsePerimeter;" vertex="1" parent="1">
          <mxGeometry x="97" y="360.75" width="15" height="15" as="geometry" />
        </mxCell>
        <mxCell id="cQRuIxADYb-FsadwnUC8-132" value="" style="verticalLabelPosition=bottom;shadow=0;dashed=0;align=center;html=1;verticalAlign=top;strokeWidth=1;shape=ellipse;perimeter=ellipsePerimeter;" vertex="1" parent="1">
          <mxGeometry x="97" y="375.75" width="15" height="15" as="geometry" />
        </mxCell>
        <mxCell id="cQRuIxADYb-FsadwnUC8-133" value="" style="verticalLabelPosition=bottom;shadow=0;dashed=0;align=center;html=1;verticalAlign=top;strokeWidth=1;shape=ellipse;perimeter=ellipsePerimeter;" vertex="1" parent="1">
          <mxGeometry x="97" y="390.75" width="15" height="15" as="geometry" />
        </mxCell>
        <mxCell id="cQRuIxADYb-FsadwnUC8-134" value="" style="verticalLabelPosition=bottom;shadow=0;dashed=0;align=center;html=1;verticalAlign=top;strokeWidth=1;shape=ellipse;perimeter=ellipsePerimeter;" vertex="1" parent="1">
          <mxGeometry x="97" y="405.75" width="15" height="15" as="geometry" />
        </mxCell>
        <mxCell id="cQRuIxADYb-FsadwnUC8-135" value="" style="verticalLabelPosition=bottom;shadow=0;dashed=0;align=center;html=1;verticalAlign=top;strokeWidth=1;shape=ellipse;perimeter=ellipsePerimeter;" vertex="1" parent="1">
          <mxGeometry x="97" y="420.75" width="15" height="15" as="geometry" />
        </mxCell>
        <mxCell id="cQRuIxADYb-FsadwnUC8-136" value="" style="verticalLabelPosition=bottom;shadow=0;dashed=0;align=center;html=1;verticalAlign=top;strokeWidth=1;shape=ellipse;perimeter=ellipsePerimeter;" vertex="1" parent="1">
          <mxGeometry x="97" y="435.75" width="15" height="15" as="geometry" />
        </mxCell>
        <mxCell id="cQRuIxADYb-FsadwnUC8-137" value="" style="verticalLabelPosition=bottom;shadow=0;dashed=0;align=center;html=1;verticalAlign=top;strokeWidth=1;shape=ellipse;perimeter=ellipsePerimeter;" vertex="1" parent="1">
          <mxGeometry x="97" y="450.75" width="15" height="15" as="geometry" />
        </mxCell>
        <mxCell id="cQRuIxADYb-FsadwnUC8-138" value="" style="verticalLabelPosition=bottom;shadow=0;dashed=0;align=center;html=1;verticalAlign=top;strokeWidth=1;shape=ellipse;perimeter=ellipsePerimeter;" vertex="1" parent="1">
          <mxGeometry x="97" y="465.75" width="15" height="15" as="geometry" />
        </mxCell>
        <mxCell id="cQRuIxADYb-FsadwnUC8-139" value="" style="verticalLabelPosition=bottom;shadow=0;dashed=0;align=center;html=1;verticalAlign=top;strokeWidth=1;shape=ellipse;perimeter=ellipsePerimeter;" vertex="1" parent="1">
          <mxGeometry x="97" y="480.75" width="15" height="15" as="geometry" />
        </mxCell>
        <mxCell id="cQRuIxADYb-FsadwnUC8-140" value="" style="verticalLabelPosition=bottom;shadow=0;dashed=0;align=center;html=1;verticalAlign=top;strokeWidth=1;shape=ellipse;perimeter=ellipsePerimeter;" vertex="1" parent="1">
          <mxGeometry x="97" y="495.75" width="15" height="15" as="geometry" />
        </mxCell>
        <mxCell id="cQRuIxADYb-FsadwnUC8-144" value="" style="line;strokeWidth=5;html=1;rotation=-180;direction=south;" vertex="1" parent="1">
          <mxGeometry x="220" y="222.5" width="10" height="40" as="geometry" />
        </mxCell>
        <mxCell id="cQRuIxADYb-FsadwnUC8-145" value="" style="line;strokeWidth=5;html=1;rotation=-180;direction=south;" vertex="1" parent="1">
          <mxGeometry x="170" y="462.75" width="130" height="24.5" as="geometry" />
        </mxCell>
        <mxCell id="cQRuIxADYb-FsadwnUC8-146" value="" style="line;strokeWidth=5;html=1;rotation=-180;direction=south;" vertex="1" parent="1">
          <mxGeometry x="140" y="485.5" width="130" height="24.5" as="geometry" />
        </mxCell>
        <mxCell id="cQRuIxADYb-FsadwnUC8-147" value="" style="line;strokeWidth=5;html=1;rotation=-180;direction=south;" vertex="1" parent="1">
          <mxGeometry x="340" y="443.5" width="10" height="59.5" as="geometry" />
        </mxCell>
        <mxCell id="cQRuIxADYb-FsadwnUC8-148" value="" style="line;strokeWidth=5;html=1;rotation=-180;direction=south;" vertex="1" parent="1">
          <mxGeometry x="463.25" y="406.25" width="10" height="110.25" as="geometry" />
        </mxCell>
        <mxCell id="cQRuIxADYb-FsadwnUC8-151" value="" style="line;strokeWidth=5;html=1;rotation=-180;direction=south;" vertex="1" parent="1">
          <mxGeometry x="340" y="152.75" width="10" height="125" as="geometry" />
        </mxCell>
        <mxCell id="cQRuIxADYb-FsadwnUC8-152" value="" style="line;strokeWidth=5;html=1;rotation=-180;direction=south;" vertex="1" parent="1">
          <mxGeometry x="360" y="67.5" width="10" height="40" as="geometry" />
        </mxCell>
        <mxCell id="cQRuIxADYb-FsadwnUC8-153" value="" style="line;strokeWidth=5;html=1;rotation=-180;direction=south;" vertex="1" parent="1">
          <mxGeometry x="360" y="207.5" width="10" height="59.5" as="geometry" />
        </mxCell>
        <mxCell id="cQRuIxADYb-FsadwnUC8-154" value="" style="line;strokeWidth=5;html=1;rotation=-180;direction=south;" vertex="1" parent="1">
          <mxGeometry x="614.5" y="368" width="10" height="40" as="geometry" />
        </mxCell>
        <mxCell id="cQRuIxADYb-FsadwnUC8-155" value="" style="verticalLabelPosition=bottom;shadow=0;dashed=0;align=center;html=1;verticalAlign=top;strokeWidth=1;shape=ellipse;perimeter=ellipsePerimeter;" vertex="1" parent="1">
          <mxGeometry x="363" y="18.75" width="15" height="15" as="geometry" />
        </mxCell>
        <mxCell id="cQRuIxADYb-FsadwnUC8-156" value="" style="verticalLabelPosition=bottom;shadow=0;dashed=0;align=center;html=1;verticalAlign=top;strokeWidth=1;shape=ellipse;perimeter=ellipsePerimeter;" vertex="1" parent="1">
          <mxGeometry x="381.5" y="18.75" width="15" height="15" as="geometry" />
        </mxCell>
        <mxCell id="cQRuIxADYb-FsadwnUC8-158" value="" style="line;strokeWidth=5;html=1;rotation=-180;direction=west;" vertex="1" parent="1">
          <mxGeometry x="710" y="21.25" width="40" height="10" as="geometry" />
        </mxCell>
        <mxCell id="cQRuIxADYb-FsadwnUC8-159" value="" style="line;strokeWidth=5;html=1;rotation=-180;direction=west;" vertex="1" parent="1">
          <mxGeometry x="710" y="180" width="40" height="10" as="geometry" />
        </mxCell>
        <mxCell id="cQRuIxADYb-FsadwnUC8-160" value="" style="pointerEvents=1;verticalLabelPosition=bottom;shadow=0;dashed=0;align=center;html=1;verticalAlign=top;shape=mxgraph.electrical.resistors.resistor_1;direction=south;" vertex="1" parent="1">
          <mxGeometry x="458.75" y="186.25" width="10" height="73.75" as="geometry" />
        </mxCell>
        <mxCell id="cQRuIxADYb-FsadwnUC8-161" value="" style="pointerEvents=1;verticalLabelPosition=bottom;shadow=0;dashed=0;align=center;html=1;verticalAlign=top;shape=mxgraph.electrical.resistors.resistor_1;direction=south;" vertex="1" parent="1">
          <mxGeometry x="418.75" y="130" width="10" height="73.75" as="geometry" />
        </mxCell>
        <mxCell id="cQRuIxADYb-FsadwnUC8-162" value="" style="pointerEvents=1;verticalLabelPosition=bottom;shadow=0;dashed=0;align=center;html=1;verticalAlign=top;shape=mxgraph.electrical.resistors.resistor_1;direction=south;" vertex="1" parent="1">
          <mxGeometry x="433.75" y="130.75" width="10" height="73.75" as="geometry" />
        </mxCell>
        <mxCell id="cQRuIxADYb-FsadwnUC8-164" value="" style="verticalLabelPosition=bottom;shadow=0;dashed=0;align=center;html=1;verticalAlign=top;strokeWidth=1;shape=ellipse;perimeter=ellipsePerimeter;" vertex="1" parent="1">
          <mxGeometry x="97.5" y="255" width="15" height="15" as="geometry" />
        </mxCell>
        <mxCell id="cQRuIxADYb-FsadwnUC8-165" value="" style="verticalLabelPosition=bottom;shadow=0;dashed=0;align=center;html=1;verticalAlign=top;strokeWidth=1;shape=ellipse;perimeter=ellipsePerimeter;" vertex="1" parent="1">
          <mxGeometry x="97.5" y="239.5" width="15" height="15" as="geometry" />
        </mxCell>
        <mxCell id="cQRuIxADYb-FsadwnUC8-166" value="" style="verticalLabelPosition=bottom;shadow=0;dashed=0;align=center;html=1;verticalAlign=top;strokeWidth=1;shape=ellipse;perimeter=ellipsePerimeter;" vertex="1" parent="1">
          <mxGeometry x="97.5" y="224.5" width="15" height="15" as="geometry" />
        </mxCell>
        <mxCell id="cQRuIxADYb-FsadwnUC8-168" value="ALLOW" style="text;html=1;strokeColor=none;fillColor=none;align=center;verticalAlign=middle;whiteSpace=wrap;rounded=0;fontStyle=1" vertex="1" parent="1">
          <mxGeometry x="165" y="35" width="60" height="30" as="geometry" />
        </mxCell>
        <mxCell id="cQRuIxADYb-FsadwnUC8-169" value="&lt;b&gt;DENIED&lt;/b&gt;" style="text;html=1;strokeColor=none;fillColor=none;align=center;verticalAlign=middle;whiteSpace=wrap;rounded=0;" vertex="1" parent="1">
          <mxGeometry x="165" y="77.5" width="60" height="30" as="geometry" />
        </mxCell>
        <mxCell id="cQRuIxADYb-FsadwnUC8-170" value="&lt;b&gt;OPEN&lt;/b&gt;" style="text;html=1;strokeColor=none;fillColor=none;align=center;verticalAlign=middle;whiteSpace=wrap;rounded=0;" vertex="1" parent="1">
          <mxGeometry x="159" y="122.5" width="60" height="30" as="geometry" />
        </mxCell>
        <mxCell id="cQRuIxADYb-FsadwnUC8-171" value="&lt;b&gt;FAIL&lt;/b&gt;" style="text;html=1;strokeColor=none;fillColor=none;align=center;verticalAlign=middle;whiteSpace=wrap;rounded=0;" vertex="1" parent="1">
          <mxGeometry x="155" y="162.5" width="60" height="30" as="geometry" />
        </mxCell>
        <mxCell id="cQRuIxADYb-FsadwnUC8-172" value="&lt;b&gt;SOURCE POWER&lt;/b&gt;" style="text;html=1;strokeColor=none;fillColor=none;align=center;verticalAlign=middle;whiteSpace=wrap;rounded=0;" vertex="1" parent="1">
          <mxGeometry x="404.5" y="1.25" width="111.25" height="30" as="geometry" />
        </mxCell>
        <mxCell id="cQRuIxADYb-FsadwnUC8-173" value="&lt;b&gt;&lt;font style=&quot;font-size: 18px;&quot;&gt;+&lt;/font&gt;&lt;/b&gt;" style="text;html=1;strokeColor=none;fillColor=none;align=center;verticalAlign=middle;whiteSpace=wrap;rounded=0;" vertex="1" parent="1">
          <mxGeometry x="318" y="11.25" width="60" height="30" as="geometry" />
        </mxCell>
        <mxCell id="cQRuIxADYb-FsadwnUC8-174" value="&lt;b&gt;UNLOCK&lt;/b&gt;" style="text;html=1;strokeColor=none;fillColor=none;align=center;verticalAlign=middle;whiteSpace=wrap;rounded=0;" vertex="1" parent="1">
          <mxGeometry x="383.75" y="50" width="60" height="30" as="geometry" />
        </mxCell>
        <mxCell id="cQRuIxADYb-FsadwnUC8-175" value="&lt;b&gt;LOCK&lt;/b&gt;" style="text;html=1;strokeColor=none;fillColor=none;align=center;verticalAlign=middle;whiteSpace=wrap;rounded=0;" vertex="1" parent="1">
          <mxGeometry x="477.25" y="50" width="60" height="30" as="geometry" />
        </mxCell>
        <mxCell id="cQRuIxADYb-FsadwnUC8-176" value="&lt;b&gt;TEST&lt;/b&gt;" style="text;html=1;strokeColor=none;fillColor=none;align=center;verticalAlign=middle;whiteSpace=wrap;rounded=0;" vertex="1" parent="1">
          <mxGeometry x="562.5" y="51" width="60" height="30" as="geometry" />
        </mxCell>
        <mxCell id="cQRuIxADYb-FsadwnUC8-177" value="&lt;b&gt;UNLOCK&lt;/b&gt;" style="text;html=1;strokeColor=none;fillColor=none;align=center;verticalAlign=middle;whiteSpace=wrap;rounded=0;" vertex="1" parent="1">
          <mxGeometry x="622.5" y="422.5" width="60" height="30" as="geometry" />
        </mxCell>
        <mxCell id="cQRuIxADYb-FsadwnUC8-178" value="&lt;b&gt;LOCK&lt;/b&gt;" style="text;html=1;strokeColor=none;fillColor=none;align=center;verticalAlign=middle;whiteSpace=wrap;rounded=0;" vertex="1" parent="1">
          <mxGeometry x="622.5" y="333.25" width="60" height="30" as="geometry" />
        </mxCell>
        <mxCell id="cQRuIxADYb-FsadwnUC8-179" value="&lt;font style=&quot;font-size: 36px;&quot;&gt;LCD&lt;/font&gt;" style="rounded=0;whiteSpace=wrap;html=1;" vertex="1" parent="1">
          <mxGeometry x="-30" y="218" width="120" height="292.5" as="geometry" />
        </mxCell>
      </root>
    </mxGraphModel>
  </diagram>
</mxfile>
